<?xml version="1.0" encoding="UTF-8" standalone="no"?>
<svg
   xmlns:dc="http://purl.org/dc/elements/1.1/"
   xmlns:cc="http://creativecommons.org/ns#"
   xmlns:rdf="http://www.w3.org/1999/02/22-rdf-syntax-ns#"
   xmlns:svg="http://www.w3.org/2000/svg"
   xmlns="http://www.w3.org/2000/svg"
   xmlns:sodipodi="http://sodipodi.sourceforge.net/DTD/sodipodi-0.dtd"
   xmlns:inkscape="http://www.inkscape.org/namespaces/inkscape"
   version="1.1"
   id="svg14"
   sodipodi:docname="solid-blazon-ico.svg"
   width="286.95062"
   height="257.54999"
   inkscape:version="0.92.3 (2405546, 2018-03-11)">
  <metadata
     id="metadata20">
    <rdf:RDF>
      <cc:Work
         rdf:about="">
        <dc:format>image/svg+xml</dc:format>
        <dc:type
           rdf:resource="http://purl.org/dc/dcmitype/StillImage" />
        <dc:title></dc:title>
      </cc:Work>
    </rdf:RDF>
  </metadata>
  <defs
     id="defs18">
    <clipPath
       clipPathUnits="userSpaceOnUse"
       id="clipPath1846">
      <g
         id="g1854"
         transform="matrix(3.2027084,0,0,3.2027084,-222.34036,-180.88969)">
        <path
           d="m 118.46888,142.2328 h 117.53418 c 1.48316,0 2.65408,-1.19695 2.65408,-2.65409 v -22.03928 c 0,-14.6495 -11.89132,-26.54085 -26.54081,-26.54085 h -70.56735 c -20.5301,-0.026 -37.15722,16.60105 -37.15722,37.13115 -0.0259,7.83214 6.271,14.10306 14.07712,14.10306 z m 11.52704,97.36836 H 200.225 c 21.20663,0 38.43214,-17.22551 38.43214,-38.43214 0,-7.07755 -5.72449,-12.82806 -12.82806,-12.82806 H 106.94184 c -1.45715,0 -2.55005,1.17091 -2.55005,2.55 v 23.05408 c -0.026,14.18112 11.47505,25.65612 25.60413,25.65612 z"
           id="path1848"
           inkscape:connector-curvature="0"
           style="fill:#f7f7f7;fill-rule:nonzero" />
        <path
           d="m 109.59592,139.3185 87.66275,87.66276 c 5.80255,5.80255 15.19592,5.80255 20.99847,0 l 15.19592,-15.19592 c 5.80255,-5.80255 5.80255,-15.19591 0,-20.99847 l -87.63673,-87.66275 c -5.80255,-5.80255 -15.19592,-5.80255 -20.99847,0 l -15.19592,15.19592 c -5.8546,5.80255 -5.8546,15.22194 -0.026,20.99847 z"
           id="path1850"
           inkscape:connector-curvature="0"
           style="fill:#f7f7f7;fill-rule:nonzero" />
        <path
           d="m 198.6898,228.46443 -51.4944,-40.12347 h 11.39695 z M 144.35918,101.66698 184.925,142.23279 h 13.7648 z"
           id="path1852"
           inkscape:connector-curvature="0"
           style="opacity:0.3;fill:#444444;fill-rule:nonzero" />
      </g>
    </clipPath>
    <clipPath
       clipPathUnits="userSpaceOnUse"
       id="clipPath1856">
      <g
         id="g1864">
        <path
           d="m 118.46888,142.2328 h 117.53418 c 1.48316,0 2.65408,-1.19695 2.65408,-2.65409 v -22.03928 c 0,-14.6495 -11.89132,-26.54085 -26.54081,-26.54085 h -70.56735 c -20.5301,-0.026 -37.15722,16.60105 -37.15722,37.13115 -0.0259,7.83214 6.271,14.10306 14.07712,14.10306 z m 11.52704,97.36836 H 200.225 c 21.20663,0 38.43214,-17.22551 38.43214,-38.43214 0,-7.07755 -5.72449,-12.82806 -12.82806,-12.82806 H 106.94184 c -1.45715,0 -2.55005,1.17091 -2.55005,2.55 v 23.05408 c -0.026,14.18112 11.47505,25.65612 25.60413,25.65612 z"
           id="path1858"
           inkscape:connector-curvature="0"
           style="fill:#f7f7f7;fill-rule:nonzero" />
        <path
           d="m 109.59592,139.3185 87.66275,87.66276 c 5.80255,5.80255 15.19592,5.80255 20.99847,0 l 15.19592,-15.19592 c 5.80255,-5.80255 5.80255,-15.19591 0,-20.99847 l -87.63673,-87.66275 c -5.80255,-5.80255 -15.19592,-5.80255 -20.99847,0 l -15.19592,15.19592 c -5.8546,5.80255 -5.8546,15.22194 -0.026,20.99847 z"
           id="path1860"
           inkscape:connector-curvature="0"
           style="fill:#f7f7f7;fill-rule:nonzero" />
        <path
           d="m 198.6898,228.46443 -51.4944,-40.12347 h 11.39695 z M 144.35918,101.66698 184.925,142.23279 h 13.7648 z"
           id="path1862"
           inkscape:connector-curvature="0"
           style="opacity:0.3;fill:#444444;fill-rule:nonzero" />
      </g>
    </clipPath>
    <clipPath
       clipPathUnits="userSpaceOnUse"
       id="clipPath831">
      <path
         style="fill:none;fill-opacity:0.44303798;fill-rule:nonzero;stroke:#000000;stroke-opacity:1"
         inkscape:connector-curvature="0"
         id="path833"
         d="m 124.75545,321.27256 -57.114798,-99.0597 c -5.308159,-9.1852 -5.308159,-20.50408 0,-29.66326 L 124.75545,93.463878 c 5.33418,-9.21122 15.14388,-14.85765 25.73418,-14.85765 h 114.22961 c 10.5903,0 20.42602,5.64643 25.73418,14.85765 l 57.16684,99.033682 c 5.30816,9.1852 5.30816,20.50408 0,29.66326 l -57.14082,99.13776 c -5.33418,9.21122 -15.14388,14.85765 -25.73418,14.85765 H 150.54167 c -10.64234,0 -20.45204,-5.67245 -25.78622,-14.88367 z" />
    </clipPath>
  </defs>
  <sodipodi:namedview
     pagecolor="#ffffff"
     bordercolor="#666666"
     borderopacity="1"
     objecttolerance="10"
     gridtolerance="10"
     guidetolerance="10"
     inkscape:pageopacity="0"
     inkscape:pageshadow="2"
     inkscape:window-width="1920"
     inkscape:window-height="1052"
     id="namedview16"
     showgrid="false"
     fit-margin-top="0"
     fit-margin-left="0"
     fit-margin-right="0"
     fit-margin-bottom="0"
     inkscape:zoom="1.668772"
     inkscape:cx="118.17992"
     inkscape:cy="143.67663"
     inkscape:window-x="0"
     inkscape:window-y="0"
     inkscape:window-maximized="1"
     inkscape:current-layer="svg14" />
  <path
     inkscape:connector-curvature="0"
     style="stroke:#000000;stroke-width:9.98597336"
     d="m 61.016949,66.111631 h 69.901821 m 29.95791,0 h 9.98596 m 9.98599,0 h 9.98598 m 19.97194,0 h 29.95791 m 9.98598,0 h 19.97195 m 9.98596,0 h 69.90182 M 61.016949,76.097605 h 9.985974 m 49.929867,0 h 9.98598 m 19.97195,0 h 39.94389 m 39.94388,0 h 19.97195 m 9.98596,0 h 9.98599 m 9.98597,0 h 9.98596 m 49.92989,0 h 9.98596 M 61.016949,86.08358 h 9.985974 m 9.985973,0 h 29.957924 m 9.98597,0 h 9.98598 m 9.98598,0 h 49.92986 m 9.98597,0 h 9.98597 m 9.98596,0 h 9.98598 m 9.98597,0 h 29.95793 m 9.98597,0 h 9.98596 m 9.98599,0 h 29.95793 m 9.98597,0 h 9.98596 M 61.016949,96.06955 h 9.985974 m 9.985973,0 h 29.957924 m 9.98597,0 h 9.98598 m 9.98598,0 h 9.98597 m 9.98596,0 h 29.95793 m 29.9579,0 h 19.97195 m 9.98598,0 h 9.98596 m 19.97195,0 h 9.98597 m 9.98598,0 h 29.95793 m 9.98598,0 h 9.98595 m -289.593211,9.98598 h 9.985974 m 9.985973,0 h 29.957924 m 9.98597,0 h 9.98598 m 9.98598,0 h 9.98597 m 19.97193,0 h 49.92986 m 29.95793,0 h 9.98596 m 19.97195,0 h 9.98597 m 9.98598,0 h 29.95793 m 9.98598,0 h 9.98595 m -289.593211,9.98596 h 9.985974 m 49.929867,0 h 9.98598 m 9.98598,0 h 19.97193 m 9.98596,0 h 9.98599 m 9.98598,0 h 49.92985 m 19.97194,0 h 9.98599 m 9.98596,0 h 9.98597 m 49.92989,0 h 9.98595 m -289.593211,9.98598 h 69.901821 m 9.98598,0 h 9.98597 m 9.98596,0 h 9.98597 m 9.98598,0 h 9.98598 m 9.98597,0 h 9.98597 m 9.98596,0 h 9.98598 m 9.98597,0 h 9.98598 m 9.98596,0 h 9.98599 m 9.98597,0 h 69.90181 m -209.70542,9.98598 h 9.98597 m 9.98596,0 h 9.98597 m 19.97196,0 h 9.98597 m 9.98597,0 h 9.98596 m 39.94389,0 h 9.98599 m -209.705441,9.98599 h 9.985974 m 9.985973,0 h 49.929874 m 39.94388,0 h 19.97196 m 9.98597,0 h 19.97193 m 9.98598,0 h 9.98597 m 9.98598,0 h 9.98596 m 19.97196,0 h 49.92988 M 90.974868,155.9854 h 9.985972 m 9.98598,0 h 9.98597 m 9.98598,0 h 29.95791 m 19.97195,0 h 9.98598 m 19.97194,0 h 99.85973 m 29.95793,0 h 9.98595 m -289.593211,9.98597 h 39.943891 m 19.97195,0 h 9.98598 m 19.97195,0 h 9.98596 m 19.97195,0 h 9.98598 m 49.92985,0 h 9.98598 m 9.98596,0 h 9.98599 m 9.98597,0 h 29.95792 m -249.649331,9.98598 h 9.985974 m 9.985973,0 h 9.985972 m 9.985972,0 h 9.98598 m 39.9439,0 h 29.95791 m 19.97195,0 h 9.98597 m 9.98596,0 h 9.98598 m 19.97195,0 h 39.94388 m 19.97196,0 h 9.98597 m 9.98599,0 h 9.98597 m -279.607261,9.98596 h 19.971947 m 19.971944,0 h 9.98598 m 9.98597,0 h 49.92986 m 9.98598,0 h 9.98598 m 29.9579,0 h 19.97195 m 9.98598,0 h 9.98596 m 49.92988,0 h 19.97196 m -269.621291,9.98598 h 19.971947 m 9.985972,0 h 29.957922 m 29.95793,0 h 69.90179 m 19.97195,0 h 29.95793 m 9.98597,0 h 29.95792 m 29.95793,0 h 9.98595 m -249.64932,9.98598 h 9.98598 m 9.98597,0 h 19.97196 m 29.9579,0 h 69.90181 m 19.97194,0 h 19.97195 m 29.95792,0 h 19.97196 m -269.621281,9.98596 h 9.985974 m 9.985973,0 h 29.957924 m 19.97195,0 h 9.98597 m 29.9579,0 h 9.98598 m 9.98598,0 h 9.98598 m 9.98596,0 h 9.98597 m 19.97194,0 h 19.97195 m 9.98598,0 h 29.95792 m 29.95793,0 h 9.98598 M 61.016949,225.8872 h 9.985974 m 9.985973,0 h 9.985972 m 29.957922,0 h 9.98598 m 19.97195,0 h 9.98596 m 39.9439,0 h 19.97193 m 9.98598,0 h 9.98597 m 69.90182,0 h 19.97196 m -269.621291,9.98599 h 49.929871 m 29.95793,0 h 9.98597 m 9.98596,0 h 9.98597 m 39.9439,0 h 59.91584 m 9.98597,0 h 9.98596 m 9.98599,0 h 9.98597 m 9.98597,0 h 9.98599 m 9.98597,0 h 9.98596 m -289.593221,9.98596 h 9.985974 m 19.971945,0 h 9.985972 m 19.97195,0 h 9.98598 m 9.98598,0 h 9.98597 m 19.97193,0 h 19.97196 m 49.92985,0 h 9.98598 m 49.92987,0 h 9.98597 m 9.98597,0 h 9.98599 m -269.621291,9.98597 h 9.985974 m 9.985973,0 h 19.971944 m 9.98598,0 h 9.98597 m 9.98598,0 h 29.95791 m 39.9439,0 h 9.98597 m 9.98596,0 h 9.98598 m 19.97195,0 h 19.97195 m 19.97193,0 h 19.97196 m 19.97196,0 h 9.98597 M 61.016949,265.8311 h 9.985974 m 9.985973,0 h 19.971944 m 19.97195,0 h 29.95793 m 29.95791,0 h 9.98598 m 29.9579,0 h 9.98598 m 9.98597,0 h 69.90182 m 9.98597,0 h 29.95792 m -209.70542,9.98598 h 9.98597 m 9.98596,0 h 9.98597 m 9.98598,0 h 39.94388 m 9.98598,0 h 19.97195 m 9.98596,0 h 9.98599 m 29.95792,0 h 49.92986 m -289.593221,9.98597 h 69.901821 m 39.94388,0 h 69.90181 m 9.98598,0 h 19.97195 m 9.98596,0 h 9.98597 m 9.98598,0 h 29.95793 m -269.621281,9.98597 h 9.985974 m 49.929867,0 h 9.98598 m 9.98598,0 h 19.97193 m 9.98596,0 h 9.98599 m 9.98598,0 h 9.98597 m 9.98597,0 h 9.98596 m 9.98598,0 h 19.97195 m 9.98596,0 h 9.98599 m 29.95792,0 h 9.98597 m 29.95793,0 h 9.98595 M 61.016949,305.775 h 9.985974 m 9.985973,0 h 29.957924 m 9.98597,0 h 9.98598 m 9.98598,0 h 19.97193 m 9.98596,0 h 19.97197 m 9.98597,0 h 19.97193 m 39.94389,0 h 49.92987 m 9.98598,0 h 29.95791 m -289.593211,9.98598 h 9.985974 m 9.985973,0 h 29.957924 m 9.98597,0 h 9.98598 m 9.98598,0 h 9.98597 m 9.98596,0 h 19.97195 m 29.95792,0 h 19.97194 m 9.98597,0 h 9.98598 m 59.91584,0 h 19.97196 m -269.621291,9.98596 h 9.985974 m 9.985973,0 h 29.957924 m 9.98597,0 h 9.98598 m 9.98598,0 h 29.9579 m 9.98598,0 h 19.97195 m 39.94388,0 h 19.97194 m 19.97195,0 h 59.91586 m -279.607261,9.98598 h 9.985974 m 49.929867,0 h 9.98598 m 19.97195,0 h 9.98596 m 19.97195,0 h 19.97195 m 19.97193,0 h 9.98598 m 19.97195,0 h 29.95791 m 9.98597,0 h 29.95793 m 9.98598,0 h 9.98598 m -279.607261,9.98597 h 69.901821 m 9.98598,0 h 9.98597 m 19.97193,0 h 9.98598 m 9.98598,0 h 9.98597 m 19.97193,0 h 9.98598 m 9.98597,0 h 19.97194 m 9.98599,0 h 9.98597 m 39.94389,0 h 9.98599"
     id="path4-3"
     clip-path="url(#clipPath831)"
     transform="translate(-63.659533,-78.606228)" />
  <path
     style="fill:#fffefe;fill-opacity:1;fill-rule:nonzero"
     inkscape:connector-curvature="0"
     id="path6"
     d="M 90.034037,107.0081 H 207.56822 c 1.48316,0 2.65409,-1.19695 2.65409,-2.65409 V 82.314732 c 0,-14.6495 -11.89132,-26.54085 -26.54081,-26.54085 h -70.56735 c -20.530103,-0.026 -37.157233,16.60105 -37.157233,37.13115 -0.0259,7.832138 6.271,14.103058 14.07712,14.103058 z m 11.527053,97.36836 h 70.22908 c 21.20663,0 38.43214,-17.22551 38.43214,-38.43214 0,-7.07755 -5.72449,-12.82806 -12.82806,-12.82806 H 78.506997 c -1.45715,0 -2.55005,1.17091 -2.55005,2.55 v 23.05408 c -0.026,14.18112 11.47505,25.65612 25.604143,25.65612 z" />
  <path
     style="fill:#ffffff;fill-opacity:1;fill-rule:nonzero"
     inkscape:connector-curvature="0"
     id="path8"
     d="m 81.161077,104.0938 87.662763,87.66276 c 5.80255,5.80255 15.19592,5.80255 20.99847,0 l 15.19592,-15.19592 c 5.80255,-5.80255 5.80255,-15.19591 0,-20.99847 L 117.3815,67.899422 c -5.80255,-5.80255 -15.19592,-5.80255 -20.998473,0 l -15.19593,15.19592 c -5.8546,5.80255 -5.8546,15.22194 -0.026,20.998468 z" />
  <path
     style="opacity:0.3;fill:#b3b3b3;fill-opacity:1;fill-rule:nonzero"
     inkscape:connector-curvature="0"
     id="path10"
     d="m 170.25497,193.23973 -51.4944,-40.12347 h 11.39695 z M 115.92435,66.442282 156.49017,107.00809 h 13.7648 z" />
</svg>
