<?xml version="1.0" encoding="UTF-8" standalone="no"?>
<svg
   xmlns:dc="http://purl.org/dc/elements/1.1/"
   xmlns:cc="http://creativecommons.org/ns#"
   xmlns:rdf="http://www.w3.org/1999/02/22-rdf-syntax-ns#"
   xmlns:svg="http://www.w3.org/2000/svg"
   xmlns="http://www.w3.org/2000/svg"
   xmlns:sodipodi="http://sodipodi.sourceforge.net/DTD/sodipodi-0.dtd"
   xmlns:inkscape="http://www.inkscape.org/namespaces/inkscape"
   version="1.1"
   id="svg14"
   sodipodi:docname="solid-blazon.svg"
   width="400.61017"
   height="400.61017"
   inkscape:version="0.92.3 (2405546, 2018-03-11)">
  <metadata
     id="metadata20">
    <rdf:RDF>
      <cc:Work
         rdf:about="">
        <dc:format>image/svg+xml</dc:format>
        <dc:type
           rdf:resource="http://purl.org/dc/dcmitype/StillImage" />
        <dc:title></dc:title>
      </cc:Work>
    </rdf:RDF>
  </metadata>
  <defs
     id="defs18">
    <clipPath
       clipPathUnits="userSpaceOnUse"
       id="clipPath1846">
      <g
         id="g1854"
         transform="matrix(3.2027084,0,0,3.2027084,-222.34036,-180.88969)">
        <path
           d="m 118.46888,142.2328 h 117.53418 c 1.48316,0 2.65408,-1.19695 2.65408,-2.65409 v -22.03928 c 0,-14.6495 -11.89132,-26.54085 -26.54081,-26.54085 h -70.56735 c -20.5301,-0.026 -37.15722,16.60105 -37.15722,37.13115 -0.0259,7.83214 6.271,14.10306 14.07712,14.10306 z m 11.52704,97.36836 H 200.225 c 21.20663,0 38.43214,-17.22551 38.43214,-38.43214 0,-7.07755 -5.72449,-12.82806 -12.82806,-12.82806 H 106.94184 c -1.45715,0 -2.55005,1.17091 -2.55005,2.55 v 23.05408 c -0.026,14.18112 11.47505,25.65612 25.60413,25.65612 z"
           id="path1848"
           inkscape:connector-curvature="0"
           style="fill:#f7f7f7;fill-rule:nonzero" />
        <path
           d="m 109.59592,139.3185 87.66275,87.66276 c 5.80255,5.80255 15.19592,5.80255 20.99847,0 l 15.19592,-15.19592 c 5.80255,-5.80255 5.80255,-15.19591 0,-20.99847 l -87.63673,-87.66275 c -5.80255,-5.80255 -15.19592,-5.80255 -20.99847,0 l -15.19592,15.19592 c -5.8546,5.80255 -5.8546,15.22194 -0.026,20.99847 z"
           id="path1850"
           inkscape:connector-curvature="0"
           style="fill:#f7f7f7;fill-rule:nonzero" />
        <path
           d="m 198.6898,228.46443 -51.4944,-40.12347 h 11.39695 z M 144.35918,101.66698 184.925,142.23279 h 13.7648 z"
           id="path1852"
           inkscape:connector-curvature="0"
           style="opacity:0.3;fill:#444444;fill-rule:nonzero" />
      </g>
    </clipPath>
    <clipPath
       clipPathUnits="userSpaceOnUse"
       id="clipPath1856">
      <g
         id="g1864">
        <path
           d="m 118.46888,142.2328 h 117.53418 c 1.48316,0 2.65408,-1.19695 2.65408,-2.65409 v -22.03928 c 0,-14.6495 -11.89132,-26.54085 -26.54081,-26.54085 h -70.56735 c -20.5301,-0.026 -37.15722,16.60105 -37.15722,37.13115 -0.0259,7.83214 6.271,14.10306 14.07712,14.10306 z m 11.52704,97.36836 H 200.225 c 21.20663,0 38.43214,-17.22551 38.43214,-38.43214 0,-7.07755 -5.72449,-12.82806 -12.82806,-12.82806 H 106.94184 c -1.45715,0 -2.55005,1.17091 -2.55005,2.55 v 23.05408 c -0.026,14.18112 11.47505,25.65612 25.60413,25.65612 z"
           id="path1858"
           inkscape:connector-curvature="0"
           style="fill:#f7f7f7;fill-rule:nonzero" />
        <path
           d="m 109.59592,139.3185 87.66275,87.66276 c 5.80255,5.80255 15.19592,5.80255 20.99847,0 l 15.19592,-15.19592 c 5.80255,-5.80255 5.80255,-15.19591 0,-20.99847 l -87.63673,-87.66275 c -5.80255,-5.80255 -15.19592,-5.80255 -20.99847,0 l -15.19592,15.19592 c -5.8546,5.80255 -5.8546,15.22194 -0.026,20.99847 z"
           id="path1860"
           inkscape:connector-curvature="0"
           style="fill:#f7f7f7;fill-rule:nonzero" />
        <path
           d="m 198.6898,228.46443 -51.4944,-40.12347 h 11.39695 z M 144.35918,101.66698 184.925,142.23279 h 13.7648 z"
           id="path1862"
           inkscape:connector-curvature="0"
           style="opacity:0.3;fill:#444444;fill-rule:nonzero" />
      </g>
    </clipPath>
  </defs>
  <sodipodi:namedview
     pagecolor="#ffffff"
     bordercolor="#666666"
     borderopacity="1"
     objecttolerance="10"
     gridtolerance="10"
     guidetolerance="10"
     inkscape:pageopacity="0"
     inkscape:pageshadow="2"
     inkscape:window-width="1853"
     inkscape:window-height="1025"
     id="namedview16"
     showgrid="false"
     fit-margin-top="0"
     fit-margin-left="0"
     fit-margin-right="0"
     fit-margin-bottom="0"
     inkscape:zoom="1.18"
     inkscape:cx="345.20358"
     inkscape:cy="145.55932"
     inkscape:window-x="1987"
     inkscape:window-y="417"
     inkscape:window-maximized="1"
     inkscape:current-layer="svg14" />
  <path
     inkscape:connector-curvature="0"
     style="stroke:#000000;stroke-width:13.81414413"
     d="m 0,6.9070721 h 96.699015 m 41.442425,0 h 13.81413 m 13.81415,0 h 13.81416 m 27.62828,0 h 41.44242 m 13.81415,0 h 27.62828 m 13.81414,0 h 96.69902 M 0,20.721217 h 13.814145 m 69.070725,0 h 13.814145 m 27.628295,0 h 55.25657 m 55.25656,0 h 27.62829 m 13.81414,0 h 13.81414 m 13.81415,0 h 13.81414 m 69.07074,0 h 13.81413 M 0,34.53536 h 13.814145 m 13.814143,0 h 41.442431 m 13.814151,0 h 13.814145 m 13.814155,0 h 69.07071 m 13.81414,0 h 13.81414 m 13.81414,0 h 13.81414 m 13.81414,0 h 41.44243 m 13.81415,0 h 13.81414 m 13.81415,0 h 41.44245 m 13.81414,0 h 13.81413 M 0,48.349504 h 13.814145 m 13.814143,0 h 41.442431 m 13.814151,0 h 13.814145 m 13.814155,0 h 13.81414 m 13.81413,0 h 41.44244 m 41.44242,0 h 27.62828 m 13.81415,0 h 13.81414 m 27.62828,0 h 13.81415 m 13.81414,0 h 41.44245 m 13.81415,0 h 13.81412 M 0,62.163649 h 13.814145 m 13.814143,0 h 41.442431 m 13.814151,0 h 13.814145 m 13.814155,0 h 13.81414 m 27.62827,0 h 69.07072 m 41.44243,0 h 13.81414 m 27.62828,0 h 13.81415 m 13.81414,0 h 41.44245 m 13.81415,0 h 13.81412 M 0,75.97779 h 13.814145 m 69.070725,0 h 13.814145 m 13.814155,0 h 27.62827 m 13.81413,0 h 13.81415 m 13.81416,0 h 69.0707 m 27.62829,0 h 13.81414 m 13.81414,0 h 13.81415 m 69.07074,0 h 13.81412 M 0,89.791937 h 96.699015 m 13.814155,0 h 13.81414 m 13.81413,0 h 13.81414 m 13.81414,0 h 13.81416 m 13.81414,0 h 13.81414 m 13.81414,0 h 13.81414 m 13.81414,0 h 13.81415 m 13.81414,0 h 13.81414 m 13.81415,0 h 96.69901 m -290.097,13.814153 h 13.81414 m 13.81413,0 h 13.81414 m 27.6283,0 h 13.81414 m 13.81414,0 h 13.81414 m 55.25657,0 h 13.81414 M 0,117.42024 h 13.814145 m 13.814143,0 h 69.070727 m 55.256565,0 h 27.6283 m 13.81414,0 h 27.62828 m 13.81414,0 h 13.81414 m 13.81415,0 h 13.81414 m 27.62829,0 H 372.9819 M 41.442431,131.23438 h 13.814143 m 13.814145,0 H 82.88487 m 13.814145,0 h 41.442425 m 27.62828,0 h 13.81416 m 27.62828,0 H 345.3536 m 41.44244,0 h 13.81412 M 0,145.04851 h 55.256574 m 27.628296,0 h 13.814145 m 27.628295,0 h 13.81413 m 27.62828,0 h 13.81416 m 69.0707,0 h 13.81415 m 13.81414,0 h 13.81414 m 13.81415,0 H 345.3536 M 0,158.86267 h 13.814145 m 13.814143,0 h 13.814143 m 13.814143,0 h 13.814145 m 55.256591,0 h 41.44241 m 27.6283,0 h 13.81414 m 13.81414,0 h 13.81414 m 27.62829,0 h 55.25657 m 27.6283,0 h 13.81414 m 13.81416,0 h 13.81414 M 0,172.67681 h 27.628288 m 27.628286,0 h 13.814145 m 13.814151,0 h 69.07071 m 13.81414,0 h 13.81416 m 41.44242,0 h 27.62828 m 13.81415,0 h 13.81414 m 69.07073,0 h 27.6283 M 0,186.49095 h 27.628288 m 13.814143,0 H 82.88487 m 41.44244,0 h 96.69899 m 27.62828,0 h 41.44243 m 13.81415,0 h 41.44244 m 41.44244,0 h 13.81412 M 55.256574,200.3051 h 13.814145 m 13.814151,0 h 27.6283 m 41.44241,0 h 96.699 m 27.62829,0 h 27.62828 m 41.44244,0 h 27.6283 M 0,214.11923 h 13.814145 m 13.814143,0 h 41.442431 m 27.628296,0 h 13.814145 m 41.44241,0 h 13.81414 m 13.81416,0 h 13.81414 m 13.81414,0 h 13.81414 m 27.62828,0 h 27.6283 m 13.81413,0 h 41.44244 m 41.44245,0 h 13.81415 M 0,227.93337 h 13.814145 m 13.814143,0 h 13.814143 m 41.442439,0 h 13.814145 m 27.628295,0 h 13.81413 m 55.25658,0 h 27.62828 m 13.81414,0 h 13.81414 m 96.69902,0 h 27.6283 M 0,241.74752 h 69.070719 m 41.442451,0 h 13.81414 m 13.81413,0 h 13.81414 m 55.25658,0 h 82.88485 m 13.81415,0 h 13.81414 m 13.81415,0 h 13.81415 m 13.81414,0 h 13.81416 m 13.81414,0 h 13.81413 M 0,255.56166 h 13.814145 m 27.628286,0 h 13.814143 m 27.628296,0 h 13.814145 m 13.814155,0 h 13.81414 m 27.62827,0 h 27.6283 m 69.0707,0 h 13.81415 m 69.07072,0 h 13.81415 m 13.81414,0 H 372.9819 M 0,269.3758 h 13.814145 m 13.814143,0 h 27.628286 m 13.814145,0 H 82.88487 m 13.814145,0 h 41.442425 m 55.25658,0 h 13.81414 m 13.81414,0 h 13.81414 m 27.62829,0 h 27.62828 m 27.62829,0 h 27.6283 m 27.6283,0 h 13.81414 M 0,283.18996 h 13.814145 m 13.814143,0 h 27.628286 m 27.628296,0 h 41.44244 m 41.44241,0 h 13.81416 m 41.44242,0 h 13.81414 m 13.81414,0 h 96.69902 m 13.81414,0 h 41.44243 m -290.097,13.81415 h 13.81414 m 13.81413,0 h 13.81414 m 13.81414,0 h 55.25658 m 13.81414,0 h 27.62829 m 13.81414,0 h 13.81414 m 41.44244,0 h 69.07072 M 0,310.81824 h 96.699015 m 55.256565,0 h 96.699 m 13.81415,0 h 27.62828 m 13.81414,0 h 13.81415 m 13.81414,0 h 41.44245 M 0,324.63239 h 13.814145 m 69.070725,0 h 13.814145 m 13.814155,0 h 27.62827 m 13.81413,0 h 13.81415 m 13.81416,0 h 13.81414 m 13.81414,0 h 13.81414 m 13.81414,0 h 27.62829 m 13.81414,0 h 13.81414 m 41.44244,0 h 13.81415 m 41.44244,0 h 13.81412 M 0,338.44653 h 13.814145 m 13.814143,0 h 41.442431 m 13.814151,0 h 13.814145 m 13.814155,0 h 27.62827 m 13.81413,0 h 27.62831 m 13.81414,0 h 27.62827 m 55.25658,0 h 69.07072 m 13.81414,0 h 41.44243 M 0,352.26069 h 13.814145 m 13.814143,0 h 41.442431 m 13.814151,0 h 13.814145 m 13.814155,0 h 13.81414 m 13.81413,0 h 27.62828 m 41.44244,0 h 27.62828 m 13.81414,0 h 13.81415 m 82.88487,0 h 27.6283 M 0,366.07483 h 13.814145 m 13.814143,0 h 41.442431 m 13.814151,0 h 13.814145 m 13.814155,0 h 41.44241 m 13.81414,0 h 27.6283 m 55.25656,0 h 27.62829 m 27.62828,0 h 82.88489 M 0,379.88897 h 13.814145 m 69.070725,0 h 13.814145 m 27.628295,0 h 13.81413 m 27.62828,0 h 27.6283 m 27.62828,0 h 13.81414 m 27.62829,0 h 41.44242 m 13.81415,0 h 41.44243 m 13.81416,0 h 13.81415 M 0,393.70311 h 96.699015 m 13.814155,0 h 13.81414 m 27.62827,0 h 13.81414 m 13.81416,0 h 13.81414 m 27.62828,0 h 13.81414 m 13.81414,0 h 27.62829 m 13.81414,0 h 13.81415 m 55.25658,0 h 13.81416"
     id="path4-3" />
  <path
     style="fill:#ffffff;fill-opacity:0.71518986;fill-rule:nonzero;stroke:#000000;stroke-opacity:1"
     inkscape:connector-curvature="0"
     id="path4"
     d="m 124.75545,321.27256 -57.114798,-99.0597 c -5.308159,-9.1852 -5.308159,-20.50408 0,-29.66326 L 124.75545,93.463878 c 5.33418,-9.21122 15.14388,-14.85765 25.73418,-14.85765 h 114.22961 c 10.5903,0 20.42602,5.64643 25.73418,14.85765 l 57.16684,99.033682 c 5.30816,9.1852 5.30816,20.50408 0,29.66326 l -57.14082,99.13776 c -5.33418,9.21122 -15.14388,14.85765 -25.73418,14.85765 H 150.54167 c -10.64234,0 -20.45204,-5.67245 -25.78622,-14.88367 z" />
  <path
     style="fill:#000000;fill-opacity:1;fill-rule:nonzero"
     inkscape:connector-curvature="0"
     id="path6"
     d="m 153.69357,185.61433 h 117.53418 c 1.48316,0 2.65409,-1.19695 2.65409,-2.65409 v -22.03928 c 0,-14.6495 -11.89132,-26.54085 -26.54081,-26.54085 h -70.56735 c -20.5301,-0.026 -37.15723,16.60105 -37.15723,37.13115 -0.0259,7.83214 6.271,14.10306 14.07712,14.10306 z m 11.52705,97.36836 h 70.22908 c 21.20663,0 38.43214,-17.22551 38.43214,-38.43214 0,-7.07755 -5.72449,-12.82806 -12.82806,-12.82806 H 142.16653 c -1.45715,0 -2.55005,1.17091 -2.55005,2.55 v 23.05408 c -0.026,14.18112 11.47505,25.65612 25.60414,25.65612 z" />
  <path
     style="fill:#000000;fill-opacity:1;fill-rule:nonzero"
     inkscape:connector-curvature="0"
     id="path8"
     d="m 144.82061,182.70003 87.66276,87.66276 c 5.80255,5.80255 15.19592,5.80255 20.99847,0 l 15.19592,-15.19592 c 5.80255,-5.80255 5.80255,-15.19591 0,-20.99847 l -87.63673,-87.66275 c -5.80255,-5.80255 -15.19592,-5.80255 -20.99847,0 l -15.19593,15.19592 c -5.8546,5.80255 -5.8546,15.22194 -0.026,20.99847 z" />
  <path
     style="opacity:0.3;fill:#b3b3b3;fill-opacity:1;fill-rule:nonzero"
     inkscape:connector-curvature="0"
     id="path10"
     d="m 233.9145,271.84596 -51.4944,-40.12347 h 11.39695 z m -54.33062,-126.79745 40.56582,40.56581 h 13.7648 z" />
</svg>
